<svg width="80" height="88" viewBox="0 0 80 88" fill="none" xmlns="http://www.w3.org/2000/svg">
<path d="M78.3555 14.8906L71.0254 11.2344C71.0166 11.2309 71.0096 11.2256 71.0008 11.2221C70.1008 10.7861 69.018 11.1606 68.582 12.0606L68.3887 12.4473V5.55665C68.3887 4.53712 67.5625 3.71095 66.543 3.71095H59.2305C59.2252 3.71095 59.2182 3.71095 59.2129 3.71095C58.2039 3.7215 57.3936 4.54767 57.4023 5.55665V10.7053L50.0723 9.48536V5.55665C50.0723 4.54415 49.2566 3.71974 48.2441 3.71095H42.6227L42.7422 2.02345C42.7809 1.51193 42.6016 1.00743 42.25 0.634777C41.9055 0.26212 41.4203 0.0529407 40.9141 0.0546985H33.584C32.6646 0.0564563 31.8877 0.742003 31.7734 1.65431L30.4937 11.8584L28.0293 3.21876C27.8799 2.69493 27.5072 2.26427 27.0098 2.04103C26.5088 1.82306 25.9357 1.83536 25.4453 2.07618L18.3244 5.65333L11.1719 7.43751C10.3562 7.63966 9.7832 8.37267 9.7832 9.2129V13.1996L2.10156 14.7324C1.133 14.9363 0.49843 15.8662 0.660149 16.8418L3.96484 36.7068C3.90331 36.7192 3.84179 36.7297 3.78202 36.7473C2.80468 37.0391 2.24921 38.0674 2.54101 39.043L15.6016 81.4766C16.7723 85.3279 20.3301 87.9559 24.3555 87.9453H53.8164C57.8418 87.9559 61.3996 85.3279 62.5703 81.4766L75.6309 39.043C75.6801 38.876 75.7064 38.702 75.7082 38.5262C75.7135 37.5067 74.8926 36.6752 73.873 36.6699H72.7428L79.2695 17.1055C79.5578 16.2424 79.1693 15.2984 78.3555 14.8906ZM59.473 36.6699L60.7949 26.1582L64.5039 27.0899L63.1328 36.6699H59.473ZM61.0586 7.38478H64.7148V19.7826L63.1311 22.9432L59.7613 22.1029L61.041 13.1328C61.0445 13.1117 61.0445 13.0924 61.0463 13.0731C61.048 13.059 61.048 13.0449 61.0498 13.0291C61.0533 12.9852 61.0568 12.9412 61.0568 12.899C61.0568 12.8885 61.0586 12.8797 61.0586 12.8692V7.38478ZM57.1562 14.3809L53.7461 38.2695C53.7461 38.2731 53.7461 38.2766 53.7443 38.2801C53.7391 38.3276 53.7355 38.375 53.732 38.4225C53.7303 38.4401 53.7303 38.4576 53.7285 38.4752C53.7285 38.4893 53.7268 38.5016 53.7268 38.5156C53.7232 40.727 53.1607 42.8065 52.1746 44.6223L53.7268 16.6309C53.7285 16.594 53.7303 16.5588 53.7303 16.5219C53.7285 15.5129 52.9094 14.6955 51.8986 14.6973H50.0705V13.2049L57.1562 14.3809ZM49.9668 18.3711L48.267 48.9992C47.1613 49.7762 45.9291 50.3844 44.6037 50.7834L46.3105 18.3711H49.9668ZM46.416 7.38478V10.8969C46.409 10.9918 46.409 11.0867 46.416 11.1799V14.6973H44.5703C43.5982 14.7043 42.7984 15.4654 42.7422 16.4375L40.9141 51.2246C40.9141 51.2317 40.9141 51.2404 40.9123 51.2475C40.9105 51.2756 40.9123 51.302 40.9123 51.3301H39.2248L42.359 7.38478H46.416ZM35.2012 3.71095H38.9453L37.5742 22.9414L37.2578 16.4375C37.2016 15.4654 36.4017 14.7043 35.4297 14.6973H33.8301L35.2012 3.71095ZM33.6894 18.3711L35.326 51.1824C34.0428 50.9873 32.8228 50.6024 31.6943 50.0557L30.0332 18.3711H33.6894ZM27.5266 14.7904C26.7566 15.0418 26.2223 15.7854 26.2715 16.6309L27.8799 47.2344C25.7529 44.9475 24.4486 41.8854 24.4434 38.5156C24.4434 38.419 24.4328 38.324 24.4187 38.2309L20.9207 8.44298L25.1113 6.34767L27.5266 14.7904ZM16.8689 36.6699L15.4961 27.0723L19.2051 26.1406L20.5287 36.6699H16.8689ZM17.3594 9.65235L18.8711 22.4492L14.9248 23.4301L13.457 14.6094V10.6367L17.3594 9.65235ZM10.1172 16.877L11.6184 25.8119C11.6201 25.8576 11.6236 25.9016 11.6289 25.9473L13.174 36.6699H7.68261L4.56249 17.9844L10.1172 16.877ZM59.0723 80.4043C58.3674 82.7158 56.2334 84.2926 53.8164 84.2891H24.3555C21.9385 84.2926 19.8045 82.7158 19.0996 80.4043L6.77734 40.3438H20.875C21.4603 45.4906 24.373 49.8588 28.4881 52.4498C28.7764 52.8172 29.2017 53.0703 29.6834 53.1336C31.951 54.3096 34.5174 54.9758 37.2262 54.9846C37.2314 54.9846 37.235 54.9846 37.2385 54.9846H37.256H40.9123C49.2971 54.9758 56.3424 48.6811 57.2934 40.3508C57.3971 40.3561 57.499 40.3543 57.5975 40.342H64.4476H64.7113H71.391L59.0723 80.4043ZM68.8984 36.6699H66.8277L68.3728 25.9473C68.4924 25.0192 67.9053 24.1473 67.0017 23.9082L66.768 23.8502L68.132 21.1221C68.1777 21.0447 68.2182 20.9639 68.2533 20.8795L71.0254 15.3301L75.2969 17.457L68.8984 36.6699Z" fill="#FB720C"/>
</svg>
