<svg width="20" height="16" viewBox="0 0 20 16" fill="none" xmlns="http://www.w3.org/2000/svg">
<path d="M5.37568 0.753918C5.20982 0.754316 5.04421 0.766718 4.88014 0.791027C3.55857 0.986457 2.4574 1.93134 1.74455 3.36486C1.0317 4.79837 0.728612 6.70728 1.03025 8.72837C1.33193 10.7495 2.17939 12.4882 3.28017 13.6535C4.38096 14.8188 5.71049 15.4042 7.03209 15.2087C8.35365 15.0133 9.45486 14.0683 10.1678 12.6348C10.3343 12.2999 10.4782 11.9388 10.5975 11.5566C9.45834 11.5593 8.29931 11.4561 7.00064 10.6079C8.89435 10.047 10.2176 8.71368 10.9431 7.78591C10.9253 7.4622 10.9314 7.60271 10.8819 7.27134C10.5803 5.25021 9.73291 3.51146 8.63213 2.34618C7.66892 1.32653 6.53056 0.750949 5.37568 0.753918ZM18.7351 5.45829C18.6658 5.45634 18.5868 5.47009 18.4987 5.50298C16.1127 6.39513 14.8177 8.22704 13.6848 9.72036C12.8728 9.83376 12.1239 9.85376 10.76 10.9564C10.4539 11.2039 12.9278 13.0242 14.476 9.90681C14.8606 9.13239 15.3167 8.27501 18.5799 6.58986C19.2325 6.25286 19.2201 5.47189 18.735 5.45829H18.7351ZM9.75221 5.72525L10.2651 6.20611C9.58572 6.93079 8.40963 7.13618 7.47123 7.04259L7.54103 6.3429C8.29599 6.41822 9.33361 6.17173 9.75221 5.72525ZM13.4898 8.34712C13.271 8.34306 12.9943 8.61986 12.7472 8.64134C12.3281 8.67775 11.8526 8.31169 11.4904 8.52572C11.2526 8.66634 11.3539 9.08962 11.159 9.28532C10.8917 9.55361 10.2515 9.3888 10.1195 9.74372C10.0266 9.99349 10.4624 10.4659 10.4624 10.4659C11.026 9.90138 11.7653 9.13361 13.5351 9.19169C13.5351 9.19169 13.8317 8.57509 13.631 8.40146C13.5878 8.364 13.5403 8.34806 13.4898 8.34712ZM5.47107 9.24657L5.8608 9.83181C5.33744 10.2153 4.90353 10.6834 5.21197 11.2903C5.43596 11.6221 5.77709 12.0147 6.21307 12.0192L6.2249 12.7222C5.51619 12.6745 4.8881 12.1743 4.58857 11.6156C4.13791 10.5575 4.6967 9.77243 5.47111 9.24657H5.47107Z" fill="#FAFAFA"/>
</svg>
