<svg width="20" height="20" viewBox="0 0 20 20" fill="none" xmlns="http://www.w3.org/2000/svg">
<path d="M0.833374 10.1872C0.833374 8.08891 0.833374 7.04025 1.31004 6.17125C1.78487 5.30133 2.65479 4.76233 4.39371 3.6825L6.22704 2.54491C8.06496 1.40366 8.98437 0.833496 10 0.833496C11.0157 0.833496 11.9342 1.40366 13.773 2.54491L15.6064 3.6825C17.3453 4.76233 18.2152 5.30133 18.691 6.17125C19.1667 7.04116 19.1667 8.08891 19.1667 10.1862V11.5814C19.1667 15.1564 19.1667 16.9448 18.0924 18.0558C17.018 19.1668 15.2901 19.1668 11.8334 19.1668H8.16671C4.70996 19.1668 2.98112 19.1668 1.90771 18.0558C0.834291 16.9448 0.833374 15.1573 0.833374 11.5814V10.1872Z" stroke="#599712" stroke-width="1.5"/>
</svg>
