<svg width="18" height="20" viewBox="0 0 18 20" fill="none" xmlns="http://www.w3.org/2000/svg">
<path d="M13.3587 0.833496H4.64125C3.57883 0.833496 3.04808 0.833496 2.61908 0.982913C2.21477 1.12658 1.84895 1.36137 1.54995 1.66911C1.25094 1.97686 1.02679 2.34929 0.894833 2.75758C0.75 3.19941 0.75 3.74575 0.75 4.83933V17.6763C0.75 18.4628 1.65292 18.8808 2.224 18.3583C2.38422 18.2103 2.59435 18.1281 2.8125 18.1281C3.03065 18.1281 3.24078 18.2103 3.401 18.3583L3.84375 18.7635C4.12444 19.0231 4.49269 19.1672 4.875 19.1672C5.25731 19.1672 5.62556 19.0231 5.90625 18.7635C6.18694 18.5039 6.55519 18.3598 6.9375 18.3598C7.31981 18.3598 7.68806 18.5039 7.96875 18.7635C8.24944 19.0231 8.61769 19.1672 9 19.1672C9.38231 19.1672 9.75056 19.0231 10.0313 18.7635C10.3119 18.5039 10.6802 18.3598 11.0625 18.3598C11.4448 18.3598 11.8131 18.5039 12.0938 18.7635C12.3744 19.0231 12.7427 19.1672 13.125 19.1672C13.5073 19.1672 13.8756 19.0231 14.1563 18.7635L14.599 18.3583C14.7592 18.2103 14.9694 18.1281 15.1875 18.1281C15.4056 18.1281 15.6158 18.2103 15.776 18.3583C16.3471 18.8808 17.25 18.4628 17.25 17.6763V4.83933C17.25 3.74575 17.25 3.1985 17.1052 2.7585C16.9733 2.35004 16.7492 1.97742 16.4502 1.66951C16.1512 1.3616 15.7853 1.12667 15.3809 0.982913C14.9519 0.833496 14.4212 0.833496 13.3587 0.833496Z" stroke="#BEBEBE" stroke-width="1.5"/>
<path d="M7.62502 9.08333H13.5834M4.41669 9.08333H4.87502M4.41669 5.875H4.87502M4.41669 12.2917H4.87502M7.62502 5.875H13.5834M7.62502 12.2917H13.5834" stroke="#BEBEBE" stroke-width="1.5" stroke-linecap="round"/>
</svg>
