<svg width="19" height="21" viewBox="0 0 19 21" fill="none" xmlns="http://www.w3.org/2000/svg">
<path d="M9.46295 16.4862H16.273C16.5381 16.5011 16.8027 16.4478 17.0415 16.3314C17.2802 16.215 17.4851 16.0393 17.6368 15.8212C17.7884 15.6032 17.8816 15.3499 17.9075 15.0855C17.9335 14.8212 17.8913 14.5546 17.785 14.3112C17.425 13.2232 15.99 11.9182 15.99 10.6342C15.99 7.78422 15.99 7.03422 14.586 5.35822C14.1316 4.81875 13.5683 4.38151 12.933 4.07522L12.15 3.69522C12.0186 3.61592 11.9052 3.51 11.8172 3.38428C11.7292 3.25856 11.6685 3.11581 11.639 2.96522C11.5607 2.45763 11.2923 1.9988 10.8882 1.68181C10.4841 1.36481 9.97458 1.21338 9.46295 1.25822C8.96056 1.22805 8.46497 1.38623 8.07296 1.70188C7.68094 2.01752 7.42067 2.46796 7.34295 2.96522C7.3077 3.12101 7.23865 3.26715 7.14067 3.3933C7.04269 3.51944 6.91818 3.62252 6.77595 3.69522L5.99295 4.07522C5.35799 4.38163 4.79501 4.81886 4.34095 5.35822C2.93795 7.03422 2.93795 7.78422 2.93795 10.6342C2.93795 11.9182 1.56795 13.0922 1.20795 14.2452C0.990954 14.9422 0.870954 16.4862 2.68795 16.4862H9.46295Z" stroke="#1A1A1A" stroke-width="1.5" stroke-linecap="round" stroke-linejoin="round"/>
<path d="M12.726 16.4863C12.7345 16.9172 12.656 17.3453 12.495 17.7451C12.3341 18.1448 12.0941 18.508 11.7893 18.8127C11.4846 19.1174 11.1215 19.3575 10.7217 19.5184C10.322 19.6794 9.89382 19.7579 9.46297 19.7493C9.032 19.7585 8.60365 19.6803 8.20369 19.5195C7.80373 19.3588 7.44043 19.1188 7.13567 18.8139C6.83092 18.5091 6.591 18.1457 6.43036 17.7457C6.26972 17.3457 6.19169 16.9173 6.20096 16.4863" stroke="#1A1A1A" stroke-width="1.5" stroke-linecap="round" stroke-linejoin="round"/>
</svg>
