<svg width="21" height="23" viewBox="0 0 21 23" fill="none" xmlns="http://www.w3.org/2000/svg">
<path d="M3.37292 10.97C3.29688 12.4242 3.38438 13.9721 2.08542 14.946C1.78678 15.1695 1.54444 15.4596 1.3777 15.7933C1.21097 16.1269 1.12444 16.4949 1.125 16.8679C1.125 17.9065 1.93959 18.7919 3 18.7919H18C19.0604 18.7919 19.875 17.9065 19.875 16.8679C19.875 16.1117 19.5188 15.3992 18.9146 14.946C17.6156 13.9721 17.7031 12.4242 17.6271 10.97C17.5333 9.143 16.7416 7.42177 15.4153 6.16177C14.0889 4.90176 12.3294 4.19922 10.5 4.19922C8.6706 4.19922 6.91106 4.90176 5.58475 6.16177C4.25844 7.42177 3.46666 9.143 3.37292 10.97Z" stroke="black" stroke-width="1.5625" stroke-linecap="round" stroke-linejoin="round"/>
<path d="M13.625 18.7918C13.625 19.6206 13.2958 20.4155 12.7097 21.0015C12.1237 21.5876 11.3288 21.9168 10.5 21.9168C9.6712 21.9168 8.87634 21.5876 8.29029 21.0015C7.70424 20.4155 7.375 19.6206 7.375 18.7918M8.9375 2.25537C8.9375 3.11787 9.6375 4.2085 10.5 4.2085C11.3625 4.2085 12.0625 3.11787 12.0625 2.25537C12.0625 1.39287 11.3625 1.0835 10.5 1.0835C9.6375 1.0835 8.9375 1.39287 8.9375 2.25537Z" stroke="black" stroke-width="1.5625" stroke-linecap="round" stroke-linejoin="round"/>
</svg>
