<svg width="19" height="23" viewBox="0 0 19 23" fill="none" xmlns="http://www.w3.org/2000/svg">
<path d="M9.50006 17.1247C9.81881 17.1247 10.0862 17.0167 10.3022 16.8007C10.5182 16.5847 10.6258 16.3177 10.6251 15.9997V11.4997C10.6251 11.181 10.5171 10.914 10.3011 10.6987C10.0851 10.4835 9.81806 10.3755 9.50006 10.3747C9.18206 10.374 8.91506 10.482 8.69906 10.6987C8.48306 10.9155 8.37506 11.1825 8.37506 11.4997V15.9997C8.37506 16.3185 8.48306 16.5858 8.69906 16.8018C8.91506 17.0178 9.18206 17.1255 9.50006 17.1247ZM9.50006 8.12471C9.81881 8.12471 10.0862 8.01671 10.3022 7.80071C10.5182 7.58471 10.6258 7.31771 10.6251 6.99971C10.6243 6.68171 10.5163 6.41471 10.3011 6.19871C10.0858 5.98271 9.81881 5.87471 9.50006 5.87471C9.18131 5.87471 8.91431 5.98271 8.69906 6.19871C8.48381 6.41471 8.37581 6.68171 8.37506 6.99971C8.37431 7.31771 8.48231 7.58508 8.69906 7.80183C8.91581 8.01858 9.18281 8.12621 9.50006 8.12471ZM9.50006 22.6372C9.36881 22.6372 9.24694 22.6278 9.13444 22.6091C9.02194 22.5903 8.90944 22.5622 8.79694 22.5247C6.26569 21.681 4.25006 20.1198 2.75006 17.8413C1.25006 15.5628 0.500061 13.1115 0.500061 10.4872V5.17158C0.500061 4.70283 0.636186 4.28096 0.908436 3.90596C1.18069 3.53096 1.53206 3.25908 1.96256 3.09033L8.71256 0.559082C8.97506 0.465332 9.23756 0.418457 9.50006 0.418457C9.76256 0.418457 10.0251 0.465332 10.2876 0.559082L17.0376 3.09033C17.4688 3.25908 17.8206 3.53096 18.0928 3.90596C18.3651 4.28096 18.5008 4.70283 18.5001 5.17158V10.4872C18.5001 13.1122 17.7501 15.564 16.2501 17.8425C14.7501 20.121 12.7344 21.6817 10.2032 22.5247C10.0907 22.5622 9.97819 22.5903 9.86569 22.6091C9.75319 22.6278 9.63131 22.6372 9.50006 22.6372ZM9.50006 20.3872C11.4501 19.7685 13.0626 18.531 14.3376 16.6747C15.6126 14.8185 16.2501 12.756 16.2501 10.4872V5.17158L9.50006 2.64033L2.75006 5.17158V10.4872C2.75006 12.756 3.38756 14.8185 4.66256 16.6747C5.93756 18.531 7.55006 19.7685 9.50006 20.3872Z" fill="black"/>
</svg>
