<svg width="21" height="23" viewBox="0 0 21 23" fill="none" xmlns="http://www.w3.org/2000/svg">
<path d="M15.7083 1.0835V3.16683M10.5 1.0835V3.16683M5.29165 1.0835V3.16683M6.33331 14.6252H10.5M6.33331 9.41683H14.6666M1.64581 15.6668V8.37516C1.64581 5.42933 1.64581 3.95537 2.56144 3.04079C3.47602 2.12516 4.94998 2.12516 7.89581 2.12516H13.1041C16.05 2.12516 17.5239 2.12516 18.4385 3.04079C19.3541 3.95537 19.3541 5.42933 19.3541 8.37516V11.5002C19.3541 16.4106 19.3541 18.8658 17.8281 20.3908C16.3041 21.9168 13.8489 21.9168 8.93748 21.9168H7.89581C4.94998 21.9168 3.47602 21.9168 2.56144 21.0012C1.64581 20.0866 1.64581 18.6127 1.64581 15.6668Z" stroke="black" stroke-width="1.5625" stroke-linecap="round" stroke-linejoin="round"/>
<path d="M19.3541 14.1045C19.3541 14.4465 19.2868 14.7851 19.1559 15.1011C19.025 15.417 18.8332 15.7041 18.5914 15.9459C18.3496 16.1877 18.0625 16.3796 17.7465 16.5104C17.4306 16.6413 17.0919 16.7087 16.75 16.7087C16.2291 16.7087 15.6166 16.618 15.1114 16.7534C14.8906 16.8126 14.6893 16.9288 14.5276 17.0905C14.366 17.2521 14.2497 17.4535 14.1906 17.6743C14.0552 18.1795 14.1458 18.793 14.1458 19.3128C14.1458 20.0035 13.8714 20.6659 13.383 21.1542C12.8947 21.6426 12.2323 21.917 11.5416 21.917" stroke="black" stroke-width="1.5625" stroke-linecap="round" stroke-linejoin="round"/>
</svg>
